<svg width="239" height="56" viewBox="0 0 239 56" fill="none" xmlns="http://www.w3.org/2000/svg">
<path d="M78.3891 13.1193V55H71.5195V13.1193H78.3891ZM101.087 13.1193C105.547 13.1193 109.443 13.983 112.778 15.7105C116.152 17.3978 118.744 19.8483 120.551 23.0622C122.399 26.2359 123.323 29.9519 123.323 34.2103C123.323 38.4687 122.399 42.1646 120.551 45.2981C118.744 48.4317 116.152 50.8421 112.778 52.5293C109.443 54.1764 105.547 55 101.087 55H87.4084V13.1193H101.087ZM101.087 49.3958C105.989 49.3958 109.745 48.0701 112.356 45.4187C114.967 42.7672 116.273 39.0311 116.273 34.2103C116.273 29.3493 114.967 25.5529 112.356 22.8212C109.745 20.0894 105.989 18.7235 101.087 18.7235H94.278V49.3958H101.087ZM137.001 26.6175C138.006 24.9303 139.331 23.6246 140.979 22.7006C142.666 21.7365 144.654 21.2544 146.944 21.2544V28.3651H145.197C142.505 28.3651 140.456 29.048 139.05 30.4139C137.684 31.7798 137.001 34.15 137.001 37.5246V55H130.132V21.7967H137.001V26.6175ZM156.754 17.3978C155.509 17.3978 154.464 16.9759 153.62 16.1323C152.777 15.2887 152.355 14.2442 152.355 12.9988C152.355 11.7534 152.777 10.7089 153.62 9.86526C154.464 9.02162 155.509 8.5998 156.754 8.5998C157.959 8.5998 158.984 9.02162 159.827 9.86526C160.671 10.7089 161.093 11.7534 161.093 12.9988C161.093 14.2442 160.671 15.2887 159.827 16.1323C158.984 16.9759 157.959 17.3978 156.754 17.3978ZM160.129 21.7967V55H153.259V21.7967H160.129ZM181.983 48.8535L191.384 21.7967H198.675L186.021 55H177.825L165.231 21.7967H172.583L181.983 48.8535ZM234.299 37.5849C234.299 38.8302 234.219 39.9551 234.058 40.9594H208.689C208.89 43.6109 209.874 45.74 211.641 47.347C213.409 48.9539 215.578 49.7574 218.149 49.7574C221.845 49.7574 224.457 48.2107 225.983 45.1174H233.395C232.391 48.1705 230.563 50.6814 227.912 52.6499C225.3 54.5782 222.046 55.5423 218.149 55.5423C214.976 55.5423 212.123 54.8393 209.593 53.4332C207.102 51.987 205.133 49.9783 203.687 47.4072C202.281 44.796 201.578 41.783 201.578 38.3682C201.578 34.9535 202.261 31.9606 203.627 29.3895C205.033 26.7782 206.981 24.7696 209.472 23.3635C212.003 21.9574 214.895 21.2544 218.149 21.2544C221.283 21.2544 224.075 21.9373 226.526 23.3032C228.976 24.6691 230.884 26.5975 232.25 29.0882C233.616 31.5388 234.299 34.371 234.299 37.5849ZM227.128 35.4155C227.088 32.8846 226.184 30.8558 224.417 29.3292C222.649 27.8027 220.459 27.0394 217.848 27.0394C215.478 27.0394 213.449 27.8027 211.762 29.3292C210.075 30.8157 209.07 32.8444 208.749 35.4155H227.128Z" fill="#9C9C9C"/>
<path d="M16.4156 6.62755L16.1073 6.75401L16.3435 6.98899L21.0479 11.6686L21.1376 11.7578L21.26 11.7257C22.7514 11.3345 24.2924 11.1387 25.8834 11.1387C36.2098 11.1387 44.6034 19.5322 44.6034 29.8586C44.6034 40.21 36.2097 48.6033 25.8834 48.6033C24.2672 48.6033 22.7015 48.4074 21.2105 48.0164L21.0881 47.9842L20.9984 48.0735L16.294 52.7531L16.057 52.9888L16.3667 53.1148C19.3135 54.3135 22.5109 54.988 25.8834 54.988C39.7224 54.988 50.9881 43.7224 50.9881 29.8834C50.9881 16.0444 39.7224 4.77878 25.8834 4.77878C22.5368 4.77878 19.3391 5.42816 16.4156 6.62755ZM15.4838 14.32L15.7073 14.1701L15.517 13.9799L11.2583 9.72121L11.1235 9.58637L10.9703 9.69989C4.80101 14.2706 0.778812 21.6146 0.778813 29.8834C0.778813 38.1271 4.77597 45.4712 10.9455 50.0422L11.0987 50.1557L11.2336 50.0208L15.4922 45.7622L15.6825 45.5719L15.459 45.4221C11.2253 42.5833 8.2157 38.0562 7.38368 32.8204C7.23695 31.8665 7.1635 30.8875 7.1635 29.8834C7.1635 28.8792 7.23696 27.9002 7.3837 26.9463C8.21567 21.6863 11.2497 17.159 15.4838 14.32Z" fill="#9C9C9C" stroke="#9C9C9C" stroke-width="0.442372"/>
<path d="M26.2212 8V7.77881H26L20 7.77881H19.7788V8L19.7788 52V52.2212H20H26H26.2212V52L26.2212 8Z" fill="#9C9C9C" stroke="#9C9C9C" stroke-width="0.442372"/>
</svg>
